<svg id="_이어_2" xmlns="http://www.w3.org/2000/svg" viewBox="0 0 63.5 78.45"><defs><style>.cls-1{fill:#fac109}</style></defs><g id="Layer_1"><path class="cls-1" d="M47.22 0C46.2.51 31.84 7.73 31.84 7.73l-.09.05S17.3.51 16.29 0c.54 1.03 15.12 28.77 15.46 29.4.33-.64 14.93-28.37 15.47-29.4Z"/><path class="cls-1" d="m52.63 22.73-.24-.2s10.81-4.54 11.04-4.64V2.37c-.53.23-19.06 8.12-19.18 8.17-.06.11-10.39 19.67-10.62 20.12 8.13.98 14.25 7.79 14.25 16.01 0 8.89-7.24 16.14-16.13 16.14s-16.14-7.24-16.14-16.14c0-8.22 6.11-15.04 14.24-16.01-.24-.45-10.54-20.01-10.62-20.12C19.12 10.49.62 2.6.09 2.37v15.52l11.03 4.64-.24.2A31.794 31.794 0 0 0 0 46.68c0 17.51 14.23 31.77 31.75 31.77S63.5 64.19 63.5 46.68c0-9.16-3.97-17.9-10.87-23.95Z"/></g></svg>